# xmcd CD database file
#
# Track frame offsets:
#	150
#	16347
#	33487
#	54653
#	69837
#	86107
#	101117
#	117947
#	133294
#	152287
#	167009
#	183812
#	202000
#
# Disc length: 2911 seconds
#
# Revision: 6
# Processed by: cddbd v1.5.2PL0 Copyright (c) Steve Scherf et al.
# Submitted via: CDex 1.51
#
DISCID=ab0b5d0d
DTITLE=Andrea Berg - Splitternackt
DYEAR=1900
DGENRE=Other
TTITLE0=Du wolltest mich für eine Nacht
TTITLE1=Auch wenn ich fühle wie du
TTITLE2=Alles an mir
TTITLE3=Warum hast du mir nie gesagt bleib heut Nacht
TTITLE4=Splitternackt
TTITLE5=Glaub nicht dass sie dich liebt wie ich
TTITLE6=Heut will ich nur mir dir
TTITLE7=Warum belügst du mich
TTITLE8=Doch du sagst nicht wann
TTITLE9=Ein bisschen Wahnsinn
TTITLE10=Jedes Feuer stirbt einmal im Regen
TTITLE11=Geh noch nicht
TTITLE12=Nein, das träum ich nicht allein
EXTD=
EXTT0=
EXTT1=
EXTT2=
EXTT3=
EXTT4=
EXTT5=
EXTT6=
EXTT7=
EXTT8=
EXTT9=
EXTT10=
EXTT11=
EXTT12=
PLAYORDER=
